PathFileType  4	(X/Y/Z) C:\Users\antoi\Documents\MyRepositories\mobilecap\ResultsAnalysis
DataRate	CameraRate	NumFrames	NumMarkers	Units	OrigDataRate	OrigDataStartFrame	OrigNumFrames
100.0	100.0	6	51	mm	100.0	35	139
Frame#	Time	r_knee			r_shank_antsup			r_ankle			r_calc			r_5meta			r_toe			L_knee			L_shank_antsup			L_ankle			L_calc			L_5meta			L_toe			r_sh2			r_sh3			r_sh4			L_sh2			L_sh3			r_thigh1			r_thigh2			r_thigh3			r_thigh4			r_thigh5			L_thigh1			L_thigh2			L_thigh3			L_thigh4			r.ASIS			r.PSIS			L.ASIS			L.PSIS			C7			R_Shoulder			L_Shoulder			R_Sternum			L_Sternum			R_humerus			R_elbow_med			R_elbow_lat			R_forearm			R_wrist_radius			R_wrist_ulna			L_humerus			L_elbow_med			L_elbow_lat			L_forearm			L_wrist_radius			L_wrist_ulna			R_HJC			L_HJC			R_HJC_reg			L_HJC_reg			
		X1	Y1	Z1	X2	Y2	Z2	X3	Y3	Z3	X4	Y4	Z4	X5	Y5	Z5	X6	Y6	Z6	X7	Y7	Z7	X8	Y8	Z8	X9	Y9	Z9	X10	Y10	Z10	X11	Y11	Z11	X12	Y12	Z12	X13	Y13	Z13	X14	Y14	Z14	X15	Y15	Z15	X16	Y16	Z16	X17	Y17	Z17	X18	Y18	Z18	X19	Y19	Z19	X20	Y20	Z20	X21	Y21	Z21	X22	Y22	Z22	X23	Y23	Z23	X24	Y24	Z24	X25	Y25	Z25	X26	Y26	Z26	X27	Y27	Z27	X28	Y28	Z28	X29	Y29	Z29	X30	Y30	Z30	X31	Y31	Z31	X32	Y32	Z32	X33	Y33	Z33	X34	Y34	Z34	X35	Y35	Z35	X36	Y36	Z36	X37	Y37	Z37	X38	Y38	Z38	X39	Y39	Z39	X40	Y40	Z40	X41	Y41	Z41	X42	Y42	Z42	X43	Y43	Z43	X44	Y44	Z44	X45	Y45	Z45	X46	Y46	Z46	X47	Y47	Z47	X48	Y48	Z48	X49	Y49	Z49	X50	Y50	Z50	X51	Y51	Z51	

35	0.34000000	175.33271	535.89911	-56.93472	196.19666	455.70100	-55.53684	134.83057	98.60596	-103.42496	73.02007	56.82875	-144.76597	281.26994	35.67343	-80.46255	311.15261	61.63096	-142.39654	403.83468	575.57198	-329.29219	374.49424	464.20249	-343.00432	142.60776	231.10057	-303.64286	63.35074	220.83990	-254.38245	274.18754	107.27934	-298.31823	235.19401	96.88324	-358.93312	192.77113	342.70398	-56.59080	123.57851	457.77627	-28.84356	109.64698	343.33804	-41.24140	304.50580	523.35635	-344.89091	234.94942	424.93351	-338.91815	269.09372	852.47942	-9.30434	274.91848	744.44136	-33.64613	219.07940	712.79190	-7.03174	153.16893	841.54147	-0.94359	164.82709	726.72896	-16.42540	341.89581	893.16837	-346.22013	414.36625	773.56159	-349.22997	242.91007	829.09529	-356.90928	322.87691	713.50508	-361.08974	289.04477	1055.12987	-43.29769	95.24974	1091.69922	-130.74881	296.48117	1043.99684	-304.50561	96.84663	1082.26104	-235.23483	94.38207	1595.85795	-187.01909	163.05286	1547.60822	-13.09191	159.36736	1560.71359	-350.81925	246.12387	1523.89162	-156.97405	246.38077	1522.15966	-211.12351	192.62281	1284.94168	89.38625	152.62680	1181.09036	35.05964	185.95933	1197.57102	110.44086	289.58644	1073.45476	111.82730	353.76426	978.80163	93.25284	320.98908	969.28321	120.46042	147.58060	1299.18893	-439.00478	87.01503	1214.48310	-383.63195	120.88317	1213.98020	-445.79820	176.23886	1049.94270	-451.92101	207.40888	956.21800	-434.72080	174.55338	948.26667	-452.85315	203.88121	976.07411	-50.77026	213.36585	965.03979	-280.67624	214.98914	983.87696	-75.15221	217.61686	968.34907	-247.05991	
36	0.35000000	181.53429	536.02828	-57.35698	201.33099	455.48252	-55.90570	135.20472	99.06477	-103.76343	73.10361	57.17734	-144.83655	281.27540	35.67264	-80.43453	311.27926	61.33132	-142.51845	420.60407	577.26778	-327.96115	396.31114	464.27243	-342.13152	177.01457	218.95883	-303.31401	98.30882	203.80573	-254.44925	315.61631	103.31093	-298.00568	277.51631	90.81146	-358.81451	196.38415	342.47006	-56.90043	128.69012	458.53567	-29.49539	113.24879	344.31039	-41.76958	323.29251	519.68632	-344.31283	258.93148	417.73919	-338.58440	278.27395	851.70703	-9.09003	283.05369	743.76054	-33.44319	226.61791	712.65224	-7.38882	161.19404	842.12757	-0.78449	172.66189	727.03624	-16.99211	355.50106	894.31190	-345.96216	428.67795	775.16277	-348.68948	256.59579	828.65957	-356.60449	337.57900	714.21533	-359.86854	299.86635	1054.54196	-42.67583	106.86750	1091.50961	-131.38744	308.89276	1044.39277	-303.90674	108.94701	1082.11485	-235.88714	106.55080	1595.66380	-186.79732	175.11971	1547.50382	-12.88689	171.44255	1560.20956	-350.66158	258.14488	1523.58482	-156.68195	258.40386	1521.80097	-210.84044	207.54244	1285.56289	89.89238	168.94828	1181.01395	35.79113	202.27027	1198.08724	111.07929	308.22929	1075.92468	111.77547	374.06412	982.53498	92.70526	341.69539	972.38902	120.10077	155.91853	1298.68505	-438.49546	94.63804	1214.88817	-382.43035	128.15358	1213.84946	-444.87046	180.86488	1048.92171	-450.95147	210.52727	954.68607	-433.65681	177.56900	947.18144	-451.62053	214.82439	975.53649	-51.02387	225.79487	965.24122	-280.90232	226.02045	983.90025	-74.93740	229.43978	968.44427	-246.85736	
37	0.36000000	187.78522	536.09508	-57.69882	206.51418	455.20117	-56.20065	135.63294	99.53170	-104.04842	73.20267	57.51508	-144.90670	281.28697	35.65664	-80.40428	311.40170	61.06861	-142.57174	436.66947	578.38778	-326.68899	417.82331	463.86697	-341.33590	212.24253	206.59503	-303.07728	134.36051	186.68165	-254.58854	357.24586	99.42024	-297.52636	320.21207	84.86913	-358.52277	200.02476	342.22446	-57.14375	133.89031	459.25253	-30.04654	116.91524	345.26141	-42.19888	341.79210	515.20674	-343.96671	283.10580	409.90629	-338.38637	287.48175	850.85949	-8.86621	291.23549	742.98653	-33.20567	234.23487	712.42486	-7.67840	169.60302	842.67070	-0.82596	180.62566	727.23348	-17.53343	368.42524	894.78558	-345.90998	442.36668	776.24058	-348.11971	269.78148	828.11051	-356.15316	351.54591	714.50927	-358.68860	310.87832	1053.82938	-42.27795	118.58700	1091.31273	-131.95620	321.18117	1044.56326	-303.47326	121.06953	1081.91798	-236.47305	118.73362	1595.34030	-186.63360	187.17063	1547.26168	-12.72747	183.61487	1559.60619	-350.53980	270.20660	1523.16065	-156.41276	270.49337	1521.33642	-210.57955	222.41474	1286.06485	90.30457	185.22685	1180.86260	36.38381	218.48884	1198.50245	111.61303	326.61722	1078.29390	111.66997	394.17674	986.20418	92.10614	362.11732	975.41845	119.64950	164.46045	1298.16095	-438.04469	102.40057	1215.25991	-381.36340	135.60623	1213.70977	-444.04180	185.78575	1047.93430	-449.99390	214.02202	953.19319	-432.56337	180.91598	946.16837	-450.39034	225.90683	974.93615	-51.32479	238.06899	965.29093	-281.17468	237.11951	983.85231	-74.85816	241.19974	968.40147	-246.74778	
38	0.37000000	194.09663	536.08937	-57.97644	211.76171	454.84515	-56.43192	136.09342	100.01412	-104.28732	73.28479	57.85033	-144.97292	281.30786	35.61901	-80.38041	311.52762	60.83475	-142.56030	451.99343	578.89954	-325.45299	438.93213	463.00603	-340.61900	248.29196	194.20227	-302.97274	171.46608	169.71248	-254.81756	399.05940	95.68644	-296.89185	363.23799	79.14596	-358.07613	203.71463	341.95940	-57.33464	139.18776	459.92304	-30.50122	120.65547	346.18400	-42.53299	359.98320	509.97168	-343.74712	307.44343	401.54593	-338.24995	296.76655	849.92198	-8.66139	299.50537	742.10931	-32.98453	242.00413	712.08111	-7.90277	178.49609	843.12367	-1.10635	188.74995	727.29084	-18.03133	380.80718	894.72123	-345.99056	455.47457	776.80137	-347.51703	282.53256	827.50401	-355.63631	364.83419	714.39933	-357.59596	322.08520	1052.98598	-42.06109	130.40327	1091.09047	-132.44496	333.33951	1044.50187	-303.20364	133.20750	1081.66596	-236.97886	130.92275	1594.88633	-186.52157	199.21495	1546.88200	-12.62442	195.86391	1558.91602	-350.45597	282.31600	1522.62291	-156.18047	282.65296	1520.77076	-210.35453	237.24728	1286.44330	90.62087	201.44201	1180.63443	36.86460	234.61477	1198.81176	112.04759	344.75442	1080.55529	111.50615	414.08699	989.79158	91.45378	382.28069	978.36003	119.10203	173.25474	1297.60891	-437.63981	110.32810	1215.60519	-380.42718	143.27867	1213.55566	-443.30198	191.02870	1046.98231	-449.05004	217.91176	951.74743	-431.45189	184.63868	945.22559	-449.17239	237.12508	974.26247	-51.65539	250.18640	965.18173	-281.48034	248.29059	983.69756	-74.88472	252.89840	968.20439	-246.72916	
39	0.38000000	200.48087	536.01147	-58.21057	217.08666	454.41682	-56.61961	136.56925	100.52276	-104.49488	73.32540	58.18622	-145.03573	281.33974	35.55762	-80.37251	311.66173	60.61792	-142.50211	466.51411	578.79478	-324.24142	459.48543	461.75046	-339.95425	285.15778	181.98058	-303.02984	209.57009	153.16529	-255.14717	441.06249	92.18342	-296.12237	406.55454	73.70024	-357.48767	207.46542	341.66855	-57.49397	144.58273	460.54742	-30.87888	124.47297	347.07725	-42.79134	377.80767	504.06688	-343.53048	331.86202	392.79381	-338.10987	306.14718	848.88039	-8.48509	307.89544	741.12614	-32.81923	249.96884	711.60913	-8.07770	187.84147	843.45263	-1.57706	197.05208	727.19680	-18.47226	392.79205	894.23910	-346.13147	468.05229	776.84036	-346.87906	294.89640	826.82261	-355.16084	377.50518	713.90567	-356.59902	333.48867	1052.01342	-41.97801	142.30695	1090.81578	-132.85409	345.39631	1044.21223	-303.08046	145.35527	1081.34610	-237.39912	143.12098	1594.30418	-186.45561	211.26987	1546.36607	-12.58488	208.17018	1558.15090	-350.41324	294.48102	1521.97476	-155.99968	294.87889	1520.10987	-210.17909	252.03911	1286.69121	90.84166	217.56454	1180.32784	37.25716	250.64460	1199.00852	112.38775	362.66332	1082.70144	111.27522	433.77273	993.27222	90.74537	402.19936	981.20820	118.45454	182.33042	1297.01994	-437.27208	118.44827	1215.92375	-379.61328	151.20480	1213.37813	-442.64194	196.61398	1046.06829	-448.12561	222.19475	950.36635	-430.33320	188.77890	944.34362	-447.97360	248.47882	973.50519	-51.99740	262.17519	964.90944	-281.80374	259.55314	983.40521	-74.98459	264.56151	967.84305	-246.78968	
40	0.39000000	206.95304	535.87008	-58.42263	222.49830	453.93062	-56.78899	137.05589	101.06899	-104.68918	73.31851	58.51807	-145.10218	281.38157	35.47776	-80.38746	311.80176	60.40661	-142.42383	480.15263	578.08203	-323.05549	479.31702	460.19297	-339.29630	322.81574	170.13416	-303.25137	248.59440	137.33056	-255.56139	483.25472	88.97376	-295.25025	450.10140	68.55732	-356.76802	211.28005	341.35087	-57.64230	150.07198	461.12958	-31.20791	128.36762	347.94712	-43.00339	395.18128	497.59504	-343.20556	356.24100	383.79757	-337.92305	315.61890	847.72800	-8.33265	316.42431	740.04350	-32.74038	258.14149	711.01407	-8.23311	197.52436	843.64033	-2.13635	205.53448	726.96246	-18.84921	404.50589	893.42183	-346.27168	480.14516	776.33456	-346.20097	306.90290	826.01930	-354.82154	389.61265	713.05071	-355.67202	345.08951	1050.91971	-41.98734	154.28621	1090.45880	-133.19206	357.40560	1043.70812	-303.07356	157.51234	1080.94184	-237.73739	155.33924	1593.60120	-186.43306	223.35736	1545.71753	-12.61091	220.52008	1557.31990	-350.41711	306.70939	1521.21962	-155.88438	307.16102	1519.36028	-210.06619	266.77932	1286.80204	90.96981	233.56168	1179.94024	37.57643	266.57137	1199.08490	112.63725	380.37485	1084.72189	110.96516	453.20761	996.61976	89.97480	421.86531	983.96129	117.70656	191.69394	1296.38583	-436.93897	126.79200	1216.20784	-378.90979	159.41303	1213.16657	-442.05425	202.56015	1045.19200	-447.22815	226.86446	949.06326	-429.21454	193.37142	943.50565	-446.79765	259.97162	972.65599	-52.33559	274.08581	964.47476	-282.13051	270.93500	982.95411	-75.13257	276.23565	967.31656	-246.91297	
